<?xml version="1.0" standalone="no"?>
<!DOCTYPE svg PUBLIC "-//W3C//DTD SVG 20010904//EN"
 "http://www.w3.org/TR/2001/REC-SVG-20010904/DTD/svg10.dtd">
<svg version="1.0" xmlns="http://www.w3.org/2000/svg"
 width="602.000000pt" height="603.000000pt" viewBox="0 0 602.000000 603.000000"
 preserveAspectRatio="xMidYMid meet">

<g transform="translate(0.000000,603.000000) scale(0.100000,-0.100000)"
fill="#000000" stroke="none">
<path d="M2968 5303 c17 -2 47 -2 65 0 17 2 3 4 -33 4 -36 0 -50 -2 -32 -4z"/>
<path d="M2790 5290 c-19 -4 -93 -17 -165 -29 -179 -31 -278 -66 -510 -180
-290 -144 -423 -236 -634 -444 -171 -167 -289 -322 -420 -549 -91 -159 -187
-371 -175 -390 3 -4 1 -8 -4 -8 -11 0 -44 -109 -36 -121 3 -5 1 -9 -4 -9 -15
0 -50 -209 -63 -375 -25 -316 12 -608 116 -920 63 -190 161 -397 248 -525 154
-226 406 -484 632 -647 86 -62 125 -87 125 -81 0 3 -24 21 -53 40 -414 275
-790 767 -943 1235 -121 371 -151 771 -83 1119 12 60 22 116 23 124 0 8 3 17
6 20 5 4 48 147 53 174 1 6 4 13 7 16 3 3 16 32 29 65 70 175 248 480 372 635
126 159 271 289 477 427 70 48 126 91 124 95 -1 5 2 7 7 4 5 -3 51 19 103 49
62 36 141 70 234 101 177 58 518 142 609 150 67 6 71 5 83 -17 12 -23 12 -23
8 -2 -4 22 -2 22 133 26 122 2 115 3 -69 6 -140 3 -186 6 -145 11 l60 7 -55 0
c-30 0 -71 -3 -90 -7z m-51 -34 c-2 -2 -22 -6 -44 -9 -28 -5 -34 -4 -20 3 19
8 73 14 64 6z m-95 -15 c3 -5 -12 -11 -34 -15 -21 -3 -110 -26 -196 -51 -86
-25 -159 -43 -161 -41 -7 7 158 67 252 92 98 25 131 29 139 15z m-789 -317
c-26 -20 -55 -36 -55 -30 0 5 63 46 70 46 3 -1 -4 -8 -15 -16z m-746 -3099
c13 -22 15 -31 6 -20 -18 22 -53 86 -38 70 6 -5 20 -28 32 -50z m76 -119 l17
-31 -20 24 c-11 14 -27 38 -37 55 l-17 31 20 -24 c11 -14 27 -38 37 -55z"/>
<path d="M3127 5293 c18 -2 50 -2 70 0 21 2 7 4 -32 4 -38 0 -55 -2 -38 -4z"/>
<path d="M3278 5283 c12 -2 30 -2 40 0 9 3 -1 5 -23 4 -22 0 -30 -2 -17 -4z"/>
<path d="M3358 5273 c12 -2 30 -2 40 0 9 3 -1 5 -23 4 -22 0 -30 -2 -17 -4z"/>
<path d="M3268 5263 c12 -2 30 -2 40 0 9 3 -1 5 -23 4 -22 0 -30 -2 -17 -4z"/>
<path d="M3428 5263 c6 -2 18 -2 25 0 6 3 1 5 -13 5 -14 0 -19 -2 -12 -5z"/>
<path d="M3353 5253 c9 -2 25 -2 35 0 9 3 1 5 -18 5 -19 0 -27 -2 -17 -5z"/>
<path d="M3445 5249 c-28 -8 -28 -8 7 -4 20 2 38 0 40 -4 2 -4 48 -15 102 -24
108 -17 127 -27 106 -52 -12 -14 -9 -14 23 1 20 10 35 19 33 21 -10 10 -214
63 -228 59 -10 -2 -18 0 -18 5 0 11 -23 10 -65 -2z"/>
<path d="M3840 5151 c41 -15 87 -33 101 -39 15 -6 30 -8 33 -5 3 4 6 1 6 -5 0
-7 5 -12 10 -12 6 0 64 -27 130 -60 66 -33 120 -58 120 -55 0 13 -256 143
-272 138 -5 -2 -8 1 -8 6 0 10 -150 61 -177 60 -10 0 16 -13 57 -28z"/>
<path d="M4250 4966 c0 -3 9 -10 20 -16 11 -6 20 -8 20 -6 0 3 -9 10 -20 16
-11 6 -20 8 -20 6z"/>
<path d="M4315 4925 c11 -9 29 -21 40 -26 l20 -10 -20 16 c-11 9 -29 21 -40
26 l-20 10 20 -16z"/>
<path d="M4410 4867 c0 -2 24 -23 54 -46 147 -110 286 -253 424 -436 41 -55
79 -99 84 -97 5 1 7 -2 4 -7 -3 -5 18 -47 48 -94 101 -162 179 -346 240 -569
18 -65 36 -115 40 -111 4 4 4 0 1 -9 -4 -9 1 -49 9 -89 25 -123 46 -296 55
-459 l9 -155 -3 215 c-3 212 -14 315 -52 477 -9 40 -20 70 -25 67 -4 -3 -5 1
-2 9 22 58 -196 553 -334 760 -114 171 -276 341 -443 467 -46 35 -90 68 -96
73 -7 5 -13 7 -13 4z m432 -394 c31 -38 63 -81 72 -98 17 -30 17 -30 -1 -5
-10 13 -38 49 -63 80 -67 82 -73 90 -67 90 2 0 29 -30 59 -67z"/>
<path d="M3317 3174 c-4 -4 -7 -15 -7 -25 0 -22 -87 -152 -139 -207 -23 -23
-41 -46 -41 -51 0 -22 19 -18 52 9 24 20 51 31 86 36 l51 6 3 -33 c2 -23 9
-35 21 -37 14 -3 17 4 17 41 0 27 5 47 13 51 8 3 6 8 -7 17 -16 10 -18 22 -15
102 3 77 1 92 -11 95 -9 1 -19 0 -23 -4z m-7 -159 c0 -29 -4 -36 -25 -41 -14
-4 -28 -4 -30 -2 -4 4 45 78 52 78 1 0 3 -16 3 -35z"/>
<path d="M2504 3129 c-135 -85 -169 -169 -88 -220 27 -16 43 -20 70 -14 59 11
85 27 91 57 4 21 11 28 29 28 32 0 37 -14 19 -56 -19 -47 -19 -74 1 -74 16 0
43 54 51 105 6 40 -10 54 -90 72 -34 8 -72 17 -84 20 -15 3 -25 0 -29 -11 -8
-21 11 -44 39 -48 35 -5 28 -40 -10 -51 -41 -12 -83 12 -83 47 0 28 80 106
109 106 29 0 65 34 58 53 -9 24 -26 21 -83 -14z"/>
<path d="M2762 3040 c-38 -23 -71 -89 -65 -125 8 -37 47 -67 95 -72 56 -6 112
8 116 30 3 15 -4 17 -66 11 -66 -6 -69 -6 -90 20 -23 30 -19 61 7 50 43 -19
70 -16 96 10 25 25 27 55 6 78 -17 19 -67 18 -99 -2z m65 -37 c5 -13 -32 -27
-47 -18 -8 5 -7 11 1 21 14 17 40 15 46 -3z"/>
<path d="M2938 3030 c-23 -18 -25 -25 -21 -63 6 -54 32 -77 87 -77 43 0 102
29 112 55 29 74 -106 138 -178 85z m137 -61 c0 -19 -8 -27 -42 -38 -34 -12
-44 -13 -57 -2 -23 20 -19 47 10 70 23 18 29 19 57 7 24 -9 32 -19 32 -37z"/>
<path d="M3426 3027 c-25 -25 -26 -32 -26 -129 0 -101 13 -155 35 -147 6 2 9
15 7 29 -1 14 -5 52 -8 84 l-7 59 24 -17 c52 -36 119 -9 119 49 0 45 -35 84
-82 92 -30 4 -41 1 -62 -20z m108 -82 c-8 -19 -48 -19 -64 0 -10 12 -9 20 5
42 l18 27 23 -27 c13 -15 21 -34 18 -42z"/>
<path d="M3621 3024 c-26 -33 -36 -120 -23 -202 12 -72 25 -93 44 -74 9 9 9
19 0 45 -7 18 -12 55 -12 82 0 46 1 47 18 32 43 -39 122 -9 122 46 -1 79 -104
128 -149 71z m109 -66 c0 -23 -27 -35 -49 -21 -23 14 -25 38 -5 57 15 16 18
16 35 0 11 -9 19 -26 19 -36z"/>
<path d="M5363 2740 c0 -25 2 -35 4 -22 2 12 2 32 0 45 -2 12 -4 2 -4 -23z"/>
<path d="M5337 2595 c-41 -227 -161 -543 -287 -752 -17 -29 -29 -53 -27 -53
10 0 97 157 157 283 34 70 79 181 100 246 42 126 84 316 78 353 -2 12 -11 -22
-21 -77z"/>
<path d="M4926 1658 c-214 -303 -542 -575 -883 -735 -274 -128 -549 -191 -863
-199 -102 -2 -217 -6 -257 -8 -40 -1 -70 1 -67 6 7 10 -49 9 -101 -2 -39 -9
-39 -9 13 -6 28 2 52 -1 52 -6 0 -5 44 -8 99 -7 54 1 102 -1 107 -3 5 -3 79
-2 164 3 463 27 896 180 1255 444 158 116 392 364 514 544 65 95 41 72 -33
-31z"/>
<path d="M1910 1006 c0 -3 9 -10 20 -16 11 -6 20 -8 20 -6 0 3 -9 10 -20 16
-11 6 -20 8 -20 6z"/>
<path d="M2140 880 c8 -5 20 -10 25 -10 6 0 3 5 -5 10 -8 5 -19 10 -25 10 -5
0 -3 -5 5 -10z"/>
<path d="M2190 860 c8 -5 20 -10 25 -10 6 0 3 5 -5 10 -8 5 -19 10 -25 10 -5
0 -3 -5 5 -10z"/>
<path d="M2345 804 c95 -33 224 -66 235 -59 5 3 12 0 16 -6 3 -6 19 -9 35 -5
15 3 29 1 31 -5 2 -7 19 -7 53 0 l50 10 -42 -2 c-24 -1 -43 1 -43 6 0 5 -12 8
-27 6 -16 -1 -35 1 -43 3 -8 3 -53 13 -100 23 -47 9 -115 25 -151 36 -91 26
-99 23 -14 -7z"/>
</g>
</svg>
